# xmcd
#
# Track frame offsets:
#	150
#	14232
#	28447
#	46218
#	59525
#	75673
#	92002
#	108993
#	120021
#	130889
#	144369
#	155477
#	169030
#	182106
#	194320
#	207368
#
# Disc length: 3009 seconds
#
# Revision: 1
# Processed by: cddbd v1.5.2PL0 Copyright (c) Steve Scherf et al.
# Submitted via: audiograbber 1.83.01
#
DISCID=db0bbf10
DTITLE=Alan Ladd - Country "Live"
DYEAR=2007
DGENRE=Country
TTITLE0=GYPSY WOMAN
TTITLE1=AMANDA
TTITLE2=GRANDPA
TTITLE3=CRYSTAL CHANDELIER
TTITLE4=THE GAMBLER
TTITLE5=VERTICAL EXPRESSION
TTITLE6=BLUE SPANISH EYES
TTITLE7=WALTZING ON TOP OF THE WORLD
TTITLE8=ADIO AMIGOS
TTITLE9=HELP ME MAKE IT THROUGH THE NIGHT
TTITLE10=VER IN DIE OU KALAHARI
TTITLE11=BLONDE MATROOS
TTITLE12=DISTANT DRUMS
TTITLE13=SOME BROKEN HEARTS
TTITLE14=YOU'RE MY BEST FRIEND
TTITLE15=ONE IN A MILLION
EXTD=
EXTT0=
EXTT1=
EXTT2=
EXTT3=
EXTT4=
EXTT5=
EXTT6=
EXTT7=
EXTT8=
EXTT9=
EXTT10=
EXTT11=
EXTT12=
EXTT13=
EXTT14=
EXTT15=
PLAYORDER=
